<svg xmlns="http://www.w3.org/2000/svg" width="58.243" height="269.592" viewBox="0 0 58.243 269.592">
  <g id="Graph_3" data-name="Graph #3" transform="translate(58.243) rotate(90)" opacity="0.998">
    <rect id="Rectangle_1" data-name="Rectangle 1" width="2.11" height="2.11" transform="translate(0 0)" fill="#bfc8d6"/>
    <rect id="Rectangle_2" data-name="Rectangle 2" width="2.11" height="2.11" transform="translate(0 11.254)" fill="#bfc8d6"/>
    <rect id="Rectangle_3" data-name="Rectangle 3" width="2.11" height="2.11" transform="translate(0 22.507)" fill="#bfc8d6"/>
    <rect id="Rectangle_4" data-name="Rectangle 4" width="2.11" height="2.11" transform="translate(11.147 0)" fill="#bfc8d6"/>
    <rect id="Rectangle_5" data-name="Rectangle 5" width="2.11" height="2.11" transform="translate(11.147 11.254)" fill="#bfc8d6"/>
    <rect id="Rectangle_6" data-name="Rectangle 6" width="2.11" height="2.11" transform="translate(11.147 22.507)" fill="#bfc8d6"/>
    <rect id="Rectangle_7" data-name="Rectangle 7" width="2.11" height="2.11" transform="translate(22.294 0)" fill="#07124a"/>
    <rect id="Rectangle_8" data-name="Rectangle 8" width="2.11" height="2.11" transform="translate(22.294 11.254)" fill="#07124a"/>
    <rect id="Rectangle_9" data-name="Rectangle 9" width="2.11" height="2.11" transform="translate(22.294 22.507)" fill="#07124a"/>
    <rect id="Rectangle_10" data-name="Rectangle 10" width="2.11" height="2.11" transform="translate(33.441 0)" fill="#07124a"/>
    <rect id="Rectangle_300" data-name="Rectangle 300" width="2.11" height="2.11" transform="translate(44.589 0)" fill="#bfc8d6"/>
    <rect id="Rectangle_306" data-name="Rectangle 306" width="2.11" height="2.11" transform="translate(89.253 0)" fill="#bfc8d6"/>
    <rect id="Rectangle_11" data-name="Rectangle 11" width="2.11" height="2.11" transform="translate(33.441 11.254)" fill="#07124a"/>
    <rect id="Rectangle_299" data-name="Rectangle 299" width="2.11" height="2.11" transform="translate(44.589 11.254)" fill="#bfc8d6"/>
    <rect id="Rectangle_305" data-name="Rectangle 305" width="2.11" height="2.11" transform="translate(89.253 11.254)" fill="#bfc8d6"/>
    <rect id="Rectangle_12" data-name="Rectangle 12" width="2.11" height="2.11" transform="translate(33.441 22.507)" fill="#07124a"/>
    <rect id="Rectangle_298" data-name="Rectangle 298" width="2.11" height="2.11" transform="translate(44.589 22.507)" fill="#bfc8d6"/>
    <rect id="Rectangle_304" data-name="Rectangle 304" width="2.11" height="2.11" transform="translate(89.253 22.507)" fill="#bfc8d6"/>
    <rect id="Rectangle_16" data-name="Rectangle 16" width="2.11" height="2.11" transform="translate(55.736 0)" fill="#07124a"/>
    <rect id="Rectangle_19" data-name="Rectangle 19" width="2.11" height="2.11" transform="translate(66.961 0)" fill="#bfc8d6"/>
    <rect id="Rectangle_22" data-name="Rectangle 22" width="2.11" height="2.11" transform="translate(78.107 0)" fill="#bfc8d6"/>
    <rect id="Rectangle_28" data-name="Rectangle 28" width="2.11" height="2.11" transform="translate(100.4 0)" fill="#bfc8d6"/>
    <rect id="Rectangle_29" data-name="Rectangle 29" width="2.11" height="2.11" transform="translate(100.4 11.254)" fill="#bfc8d6"/>
    <rect id="Rectangle_30" data-name="Rectangle 30" width="2.11" height="2.11" transform="translate(100.4 22.507)" fill="#bfc8d6"/>
    <rect id="Rectangle_31" data-name="Rectangle 31" width="2.11" height="2.11" transform="translate(111.547 0)" fill="#bfc8d6"/>
    <rect id="Rectangle_32" data-name="Rectangle 32" width="2.11" height="2.11" transform="translate(111.547 11.254)" fill="#bfc8d6"/>
    <rect id="Rectangle_33" data-name="Rectangle 33" width="2.11" height="2.11" transform="translate(111.547 22.507)" fill="#bfc8d6"/>
    <rect id="Rectangle_34" data-name="Rectangle 34" width="2.11" height="2.11" transform="translate(122.693 0)" fill="#bfc8d6"/>
    <rect id="Rectangle_35" data-name="Rectangle 35" width="2.11" height="2.11" transform="translate(122.693 11.254)" fill="#bfc8d6"/>
    <rect id="Rectangle_36" data-name="Rectangle 36" width="2.11" height="2.11" transform="translate(122.693 22.507)" fill="#bfc8d6"/>
    <rect id="Rectangle_37" data-name="Rectangle 37" width="2.11" height="2.11" transform="translate(133.84 0)" fill="#bfc8d6"/>
    <rect id="Rectangle_38" data-name="Rectangle 38" width="2.11" height="2.11" transform="translate(133.84 11.254)" fill="#bfc8d6"/>
    <rect id="Rectangle_39" data-name="Rectangle 39" width="2.11" height="2.11" transform="translate(133.84 22.507)" fill="#bfc8d6"/>
    <rect id="Rectangle_40" data-name="Rectangle 40" width="2.11" height="2.11" transform="translate(144.986 0)" fill="#bfc8d6"/>
    <rect id="Rectangle_41" data-name="Rectangle 41" width="2.11" height="2.11" transform="translate(144.986 11.254)" fill="#bfc8d6"/>
    <rect id="Rectangle_42" data-name="Rectangle 42" width="2.11" height="2.11" transform="translate(144.986 22.507)" fill="#bfc8d6"/>
    <rect id="Rectangle_43" data-name="Rectangle 43" width="2.11" height="2.11" transform="translate(156.132 0)" fill="#bfc8d6"/>
    <rect id="Rectangle_44" data-name="Rectangle 44" width="2.11" height="2.11" transform="translate(156.132 11.254)" fill="#bfc8d6"/>
    <rect id="Rectangle_45" data-name="Rectangle 45" width="2.11" height="2.11" transform="translate(156.132 22.507)" fill="#bfc8d6"/>
    <rect id="Rectangle_46" data-name="Rectangle 46" width="2.11" height="2.11" transform="translate(167.278 0)" fill="#bfc8d6"/>
    <rect id="Rectangle_47" data-name="Rectangle 47" width="2.11" height="2.11" transform="translate(167.278 11.254)" fill="#bfc8d6"/>
    <rect id="Rectangle_48" data-name="Rectangle 48" width="2.11" height="2.11" transform="translate(167.278 22.507)" fill="#bfc8d6"/>
    <rect id="Rectangle_49" data-name="Rectangle 49" width="2.11" height="2.11" transform="translate(178.425 0)" fill="#bfc8d6"/>
    <rect id="Rectangle_50" data-name="Rectangle 50" width="2.11" height="2.11" transform="translate(178.425 11.254)" fill="#bfc8d6"/>
    <rect id="Rectangle_51" data-name="Rectangle 51" width="2.11" height="2.11" transform="translate(178.425 22.507)" fill="#bfc8d6"/>
    <rect id="Rectangle_52" data-name="Rectangle 52" width="2.11" height="2.11" transform="translate(189.571 0)" fill="#bfc8d6"/>
    <rect id="Rectangle_53" data-name="Rectangle 53" width="2.11" height="2.11" transform="translate(189.571 11.254)" fill="#bfc8d6"/>
    <rect id="Rectangle_54" data-name="Rectangle 54" width="2.11" height="2.11" transform="translate(189.571 22.507)" fill="#bfc8d6"/>
    <rect id="Rectangle_55" data-name="Rectangle 55" width="2.11" height="2.11" transform="translate(0 33.627)" fill="#bfc8d6"/>
    <rect id="Rectangle_56" data-name="Rectangle 56" width="2.11" height="2.11" transform="translate(0 44.88)" fill="#bfc8d6"/>
    <rect id="Rectangle_57" data-name="Rectangle 57" width="2.11" height="2.11" transform="translate(0 56.134)" fill="#bfc8d6"/>
    <rect id="Rectangle_58" data-name="Rectangle 58" width="2.11" height="2.11" transform="translate(11.147 33.627)" fill="#bfc8d6"/>
    <rect id="Rectangle_59" data-name="Rectangle 59" width="2.11" height="2.11" transform="translate(11.147 44.88)" fill="#bfc8d6"/>
    <rect id="Rectangle_60" data-name="Rectangle 60" width="2.11" height="2.11" transform="translate(11.147 56.134)" fill="#bfc8d6"/>
    <rect id="Rectangle_61" data-name="Rectangle 61" width="2.11" height="2.11" transform="translate(22.294 33.627)" fill="#07124a"/>
    <rect id="Rectangle_62" data-name="Rectangle 62" width="2.11" height="2.11" transform="translate(22.294 44.88)" fill="#07124a"/>
    <rect id="Rectangle_63" data-name="Rectangle 63" width="2.11" height="2.11" transform="translate(22.294 56.134)" fill="#07124a"/>
    <rect id="Rectangle_64" data-name="Rectangle 64" width="2.11" height="2.11" transform="translate(33.441 33.627)" fill="#07124a"/>
    <rect id="Rectangle_297" data-name="Rectangle 297" width="2.11" height="2.11" transform="translate(44.589 33.627)" fill="#bfc8d6"/>
    <rect id="Rectangle_303" data-name="Rectangle 303" width="2.11" height="2.11" transform="translate(89.253 33.627)" fill="#bfc8d6"/>
    <rect id="Rectangle_65" data-name="Rectangle 65" width="2.11" height="2.11" transform="translate(33.441 44.88)" fill="#07124a"/>
    <rect id="Rectangle_296" data-name="Rectangle 296" width="2.11" height="2.11" transform="translate(44.589 44.88)" fill="#bfc8d6"/>
    <rect id="Rectangle_302" data-name="Rectangle 302" width="2.11" height="2.11" transform="translate(89.253 44.88)" fill="#bfc8d6"/>
    <rect id="Rectangle_66" data-name="Rectangle 66" width="2.11" height="2.11" transform="translate(33.441 56.134)" fill="#07124a"/>
    <rect id="Rectangle_295" data-name="Rectangle 295" width="2.11" height="2.11" transform="translate(44.589 56.134)" fill="#bfc8d6"/>
    <rect id="Rectangle_301" data-name="Rectangle 301" width="2.11" height="2.11" transform="translate(89.253 56.134)" fill="#bfc8d6"/>
    <rect id="Rectangle_72" data-name="Rectangle 72" width="2.11" height="2.11" transform="translate(55.736 56.134)" fill="#07124a"/>
    <rect id="Rectangle_283" data-name="Rectangle 283" width="2.11" height="2.11" transform="translate(55.736 44.88)" fill="#07124a"/>
    <rect id="Rectangle_286" data-name="Rectangle 286" width="2.11" height="2.11" transform="translate(55.736 33.627)" fill="#07124a"/>
    <rect id="Rectangle_289" data-name="Rectangle 289" width="2.11" height="2.11" transform="translate(55.736 22.374)" fill="#07124a"/>
    <rect id="Rectangle_292" data-name="Rectangle 292" width="2.11" height="2.11" transform="translate(55.736 11.121)" fill="#07124a"/>
    <rect id="Rectangle_75" data-name="Rectangle 75" width="2.11" height="2.11" transform="translate(66.961 56.134)" fill="#bfc8d6"/>
    <rect id="Rectangle_284" data-name="Rectangle 284" width="2.11" height="2.11" transform="translate(66.961 44.88)" fill="#bfc8d6"/>
    <rect id="Rectangle_287" data-name="Rectangle 287" width="2.11" height="2.11" transform="translate(66.961 33.627)" fill="#bfc8d6"/>
    <rect id="Rectangle_290" data-name="Rectangle 290" width="2.11" height="2.11" transform="translate(66.961 22.374)" fill="#bfc8d6"/>
    <rect id="Rectangle_293" data-name="Rectangle 293" width="2.11" height="2.11" transform="translate(66.961 11.121)" fill="#bfc8d6"/>
    <rect id="Rectangle_78" data-name="Rectangle 78" width="2.11" height="2.11" transform="translate(78.107 56.134)" fill="#bfc8d6"/>
    <rect id="Rectangle_285" data-name="Rectangle 285" width="2.11" height="2.11" transform="translate(78.107 44.88)" fill="#bfc8d6"/>
    <rect id="Rectangle_288" data-name="Rectangle 288" width="2.11" height="2.11" transform="translate(78.107 33.627)" fill="#bfc8d6"/>
    <rect id="Rectangle_291" data-name="Rectangle 291" width="2.11" height="2.11" transform="translate(78.107 22.374)" fill="#bfc8d6"/>
    <rect id="Rectangle_294" data-name="Rectangle 294" width="2.11" height="2.11" transform="translate(78.107 11.121)" fill="#bfc8d6"/>
    <rect id="Rectangle_82" data-name="Rectangle 82" width="2.11" height="2.11" transform="translate(100.4 33.627)" fill="#bfc8d6"/>
    <rect id="Rectangle_83" data-name="Rectangle 83" width="2.11" height="2.11" transform="translate(100.4 44.88)" fill="#bfc8d6"/>
    <rect id="Rectangle_84" data-name="Rectangle 84" width="2.11" height="2.11" transform="translate(100.4 56.134)" fill="#bfc8d6"/>
    <rect id="Rectangle_85" data-name="Rectangle 85" width="2.11" height="2.11" transform="translate(111.547 33.627)" fill="#bfc8d6"/>
    <rect id="Rectangle_86" data-name="Rectangle 86" width="2.11" height="2.11" transform="translate(111.547 44.88)" fill="#bfc8d6"/>
    <rect id="Rectangle_87" data-name="Rectangle 87" width="2.11" height="2.11" transform="translate(111.547 56.134)" fill="#bfc8d6"/>
    <rect id="Rectangle_88" data-name="Rectangle 88" width="2.11" height="2.11" transform="translate(122.693 33.627)" fill="#bfc8d6"/>
    <rect id="Rectangle_89" data-name="Rectangle 89" width="2.11" height="2.11" transform="translate(122.693 44.88)" fill="#bfc8d6"/>
    <rect id="Rectangle_90" data-name="Rectangle 90" width="2.11" height="2.11" transform="translate(122.693 56.134)" fill="#bfc8d6"/>
    <rect id="Rectangle_91" data-name="Rectangle 91" width="2.11" height="2.11" transform="translate(133.84 33.627)" fill="#bfc8d6"/>
    <rect id="Rectangle_92" data-name="Rectangle 92" width="2.11" height="2.11" transform="translate(133.84 44.88)" fill="#bfc8d6"/>
    <rect id="Rectangle_93" data-name="Rectangle 93" width="2.11" height="2.11" transform="translate(133.84 56.134)" fill="#bfc8d6"/>
    <rect id="Rectangle_94" data-name="Rectangle 94" width="2.11" height="2.11" transform="translate(144.986 33.627)" fill="#bfc8d6"/>
    <rect id="Rectangle_95" data-name="Rectangle 95" width="2.11" height="2.11" transform="translate(144.986 44.88)" fill="#bfc8d6"/>
    <rect id="Rectangle_96" data-name="Rectangle 96" width="2.11" height="2.11" transform="translate(144.986 56.134)" fill="#bfc8d6"/>
    <rect id="Rectangle_97" data-name="Rectangle 97" width="2.11" height="2.11" transform="translate(156.132 33.627)" fill="#bfc8d6"/>
    <rect id="Rectangle_98" data-name="Rectangle 98" width="2.11" height="2.11" transform="translate(156.132 44.88)" fill="#bfc8d6"/>
    <rect id="Rectangle_99" data-name="Rectangle 99" width="2.11" height="2.11" transform="translate(156.132 56.134)" fill="#bfc8d6"/>
    <rect id="Rectangle_100" data-name="Rectangle 100" width="2.11" height="2.11" transform="translate(167.278 33.627)" fill="#bfc8d6"/>
    <rect id="Rectangle_101" data-name="Rectangle 101" width="2.11" height="2.11" transform="translate(167.278 44.88)" fill="#bfc8d6"/>
    <rect id="Rectangle_102" data-name="Rectangle 102" width="2.11" height="2.11" transform="translate(167.278 56.134)" fill="#bfc8d6"/>
    <rect id="Rectangle_103" data-name="Rectangle 103" width="2.11" height="2.11" transform="translate(178.425 33.627)" fill="#bfc8d6"/>
    <rect id="Rectangle_104" data-name="Rectangle 104" width="2.11" height="2.11" transform="translate(178.425 44.88)" fill="#bfc8d6"/>
    <rect id="Rectangle_105" data-name="Rectangle 105" width="2.11" height="2.11" transform="translate(178.425 56.134)" fill="#bfc8d6"/>
    <rect id="Rectangle_106" data-name="Rectangle 106" width="2.11" height="2.11" transform="translate(189.571 33.627)" fill="#bfc8d6"/>
    <rect id="Rectangle_107" data-name="Rectangle 107" width="2.11" height="2.11" transform="translate(189.571 44.88)" fill="#bfc8d6"/>
    <rect id="Rectangle_108" data-name="Rectangle 108" width="2.11" height="2.11" transform="translate(189.571 56.134)" fill="#bfc8d6"/>
    <rect id="Rectangle_109" data-name="Rectangle 109" width="2.11" height="2.11" transform="translate(200.668 0)" fill="#bfc8d6"/>
    <rect id="Rectangle_110" data-name="Rectangle 110" width="2.11" height="2.11" transform="translate(200.668 11.254)" fill="#bfc8d6"/>
    <rect id="Rectangle_111" data-name="Rectangle 111" width="2.11" height="2.11" transform="translate(200.668 22.507)" fill="#bfc8d6"/>
    <rect id="Rectangle_112" data-name="Rectangle 112" width="2.11" height="2.11" transform="translate(211.814 0)" fill="#bfc8d6"/>
    <rect id="Rectangle_113" data-name="Rectangle 113" width="2.11" height="2.11" transform="translate(211.814 11.254)" fill="#bfc8d6"/>
    <rect id="Rectangle_114" data-name="Rectangle 114" width="2.11" height="2.11" transform="translate(211.814 22.507)" fill="#bfc8d6"/>
    <rect id="Rectangle_115" data-name="Rectangle 115" width="2.11" height="2.11" transform="translate(222.961 0)" fill="#bfc8d6"/>
    <rect id="Rectangle_116" data-name="Rectangle 116" width="2.11" height="2.11" transform="translate(222.961 11.254)" fill="#bfc8d6"/>
    <rect id="Rectangle_117" data-name="Rectangle 117" width="2.11" height="2.11" transform="translate(222.961 22.507)" fill="#bfc8d6"/>
    <rect id="Rectangle_118" data-name="Rectangle 118" width="2.11" height="2.11" transform="translate(234.107 0)" fill="#bfc8d6"/>
    <rect id="Rectangle_119" data-name="Rectangle 119" width="2.11" height="2.11" transform="translate(234.107 11.254)" fill="#bfc8d6"/>
    <rect id="Rectangle_120" data-name="Rectangle 120" width="2.11" height="2.11" transform="translate(234.107 22.507)" fill="#bfc8d6"/>
    <rect id="Rectangle_121" data-name="Rectangle 121" width="2.11" height="2.11" transform="translate(245.253 0)" fill="#bfc8d6"/>
    <rect id="Rectangle_122" data-name="Rectangle 122" width="2.11" height="2.11" transform="translate(245.253 11.254)" fill="#bfc8d6"/>
    <rect id="Rectangle_123" data-name="Rectangle 123" width="2.11" height="2.11" transform="translate(245.253 22.507)" fill="#bfc8d6"/>
    <rect id="Rectangle_124" data-name="Rectangle 124" width="2.11" height="2.11" transform="translate(256.4 0)" fill="#bfc8d6"/>
    <rect id="Rectangle_125" data-name="Rectangle 125" width="2.11" height="2.11" transform="translate(256.4 11.254)" fill="#bfc8d6"/>
    <rect id="Rectangle_126" data-name="Rectangle 126" width="2.11" height="2.11" transform="translate(256.4 22.507)" fill="#bfc8d6"/>
    <rect id="Rectangle_127" data-name="Rectangle 127" width="2.11" height="2.11" transform="translate(267.483 0)" fill="#bfc8d6"/>
    <rect id="Rectangle_128" data-name="Rectangle 128" width="2.11" height="2.11" transform="translate(267.483 11.254)" fill="#bfc8d6"/>
    <rect id="Rectangle_129" data-name="Rectangle 129" width="2.11" height="2.11" transform="translate(267.483 22.507)" fill="#bfc8d6"/>
    <rect id="Rectangle_163" data-name="Rectangle 163" width="2.11" height="2.11" transform="translate(200.668 33.627)" fill="#bfc8d6"/>
    <rect id="Rectangle_164" data-name="Rectangle 164" width="2.11" height="2.11" transform="translate(200.668 44.88)" fill="#bfc8d6"/>
    <rect id="Rectangle_165" data-name="Rectangle 165" width="2.11" height="2.11" transform="translate(200.668 56.134)" fill="#bfc8d6"/>
    <rect id="Rectangle_166" data-name="Rectangle 166" width="2.11" height="2.11" transform="translate(211.814 33.627)" fill="#bfc8d6"/>
    <rect id="Rectangle_167" data-name="Rectangle 167" width="2.11" height="2.11" transform="translate(211.814 44.88)" fill="#bfc8d6"/>
    <rect id="Rectangle_168" data-name="Rectangle 168" width="2.11" height="2.11" transform="translate(211.814 56.134)" fill="#bfc8d6"/>
    <rect id="Rectangle_169" data-name="Rectangle 169" width="2.11" height="2.11" transform="translate(222.961 33.627)" fill="#bfc8d6"/>
    <rect id="Rectangle_170" data-name="Rectangle 170" width="2.11" height="2.11" transform="translate(222.961 44.88)" fill="#bfc8d6"/>
    <rect id="Rectangle_171" data-name="Rectangle 171" width="2.11" height="2.11" transform="translate(222.961 56.134)" fill="#bfc8d6"/>
    <rect id="Rectangle_172" data-name="Rectangle 172" width="2.11" height="2.11" transform="translate(234.107 33.627)" fill="#bfc8d6"/>
    <rect id="Rectangle_173" data-name="Rectangle 173" width="2.11" height="2.11" transform="translate(234.107 44.88)" fill="#bfc8d6"/>
    <rect id="Rectangle_174" data-name="Rectangle 174" width="2.11" height="2.11" transform="translate(234.107 56.134)" fill="#bfc8d6"/>
    <rect id="Rectangle_175" data-name="Rectangle 175" width="2.11" height="2.11" transform="translate(245.253 33.627)" fill="#bfc8d6"/>
    <rect id="Rectangle_176" data-name="Rectangle 176" width="2.11" height="2.11" transform="translate(245.253 44.88)" fill="#bfc8d6"/>
    <rect id="Rectangle_177" data-name="Rectangle 177" width="2.11" height="2.11" transform="translate(245.253 56.134)" fill="#bfc8d6"/>
    <rect id="Rectangle_178" data-name="Rectangle 178" width="2.11" height="2.11" transform="translate(256.4 33.627)" fill="#bfc8d6"/>
    <rect id="Rectangle_179" data-name="Rectangle 179" width="2.11" height="2.11" transform="translate(256.4 44.88)" fill="#bfc8d6"/>
    <rect id="Rectangle_180" data-name="Rectangle 180" width="2.11" height="2.11" transform="translate(256.4 56.134)" fill="#bfc8d6"/>
    <rect id="Rectangle_181" data-name="Rectangle 181" width="2.11" height="2.11" transform="translate(267.483 33.627)" fill="#bfc8d6"/>
    <rect id="Rectangle_182" data-name="Rectangle 182" width="2.11" height="2.11" transform="translate(267.483 44.88)" fill="#bfc8d6"/>
    <rect id="Rectangle_183" data-name="Rectangle 183" width="2.11" height="2.11" transform="translate(267.483 56.134)" fill="#bfc8d6"/>
  </g>
</svg>
