<svg xmlns="http://www.w3.org/2000/svg" xmlns:xlink="http://www.w3.org/1999/xlink" width="48" height="55" viewBox="0 0 48 55">
  <defs>
    <clipPath id="clip-path">
      <rect id="Rectangle_389" data-name="Rectangle 389" width="48" height="55" fill="#97a2b6"/>
    </clipPath>
  </defs>
  <g id="Group_150" data-name="Group 150" transform="translate(0 0)">
    <g id="Group_150-2" data-name="Group 150" transform="translate(0 0)" clip-path="url(#clip-path)">
      <path id="Path_187" data-name="Path 187" d="M18.52,63.425a18.675,18.675,0,0,0,16.753-26.6l9.455-8.753A4.63,4.63,0,0,0,45,21.564a4.536,4.536,0,0,0-6.449-.279l-9.1,8.416A18.287,18.287,0,0,0,18.52,26.07a18.678,18.678,0,0,0,0,37.355m0-5.112A13.562,13.562,0,1,1,31.969,44.748,13.508,13.508,0,0,1,18.52,58.313" transform="translate(0 -8.426)" fill="#97a2b6"/>
      <path id="Path_188" data-name="Path 188" d="M31.316,51.734l-.5-1.211,2.4-1.835a10.8,10.8,0,0,0-3.062-3.079l-1.812,2.431-1.2-.5-1.2-.5.413-3.013a10.673,10.673,0,0,0-4.325.007l.423,3.011-1.2.5-1.2.5-1.82-2.425a10.8,10.8,0,0,0-3.053,3.089l2.41,1.828-.5,1.212-.5,1.212-2.987-.417a10.932,10.932,0,0,0,.007,4.361l2.985-.426.5,1.21.5,1.211-2.4,1.835a10.8,10.8,0,0,0,3.062,3.08l1.812-2.431,1.2.5,1.2.5L22.064,65.4a10.673,10.673,0,0,0,4.325-.007l-.422-3.011,1.2-.5,1.2-.5,1.82,2.425a10.8,10.8,0,0,0,3.053-3.089L30.83,58.886l.5-1.212.5-1.212,2.986.417a10.922,10.922,0,0,0-.007-4.361l-2.985.426Zm-2.721,2.981a4.385,4.385,0,1,1-4.384-4.422,4.4,4.4,0,0,1,4.384,4.422" transform="translate(-5.689 -18.389)" fill="#97a2b6"/>
      <path id="Path_189" data-name="Path 189" d="M74.719,48.255l-.1-.588,1.254-.558a4.93,4.93,0,0,0-1.035-1.686l-1.055.884-.48-.348-.48-.348.5-1.289a4.857,4.857,0,0,0-1.914-.454l-.125,1.377-.583.1-.583.1-.553-1.265a4.873,4.873,0,0,0-1.671,1.044l.876,1.063-.345.484-.345.484-1.278-.5a4.978,4.978,0,0,0-.45,1.93l1.365.127.095.588.1.588-1.254.558a4.923,4.923,0,0,0,1.036,1.686l1.054-.884.48.348.48.348-.5,1.289a4.867,4.867,0,0,0,1.914.454l.126-1.377.583-.1.583-.1.553,1.265a4.868,4.868,0,0,0,1.671-1.044l-.876-1.063.345-.484.345-.484,1.278.5a4.957,4.957,0,0,0,.45-1.93l-1.365-.127Zm-2.007.914a1.488,1.488,0,1,1-1.1-1.8,1.487,1.487,0,0,1,1.1,1.8" transform="translate(-28.179 -18.414)" fill="#97a2b6"/>
      <path id="Path_190" data-name="Path 190" d="M46.675,5.688l-.51-.916,1.741-1.687A8.607,8.607,0,0,0,45.183.927l-1.214,2.1-1-.283-1-.284L42.011.029a8.551,8.551,0,0,0-3.439.416L39.189,2.8l-.908.515-.907.514L35.7,2.073a8.665,8.665,0,0,0-2.14,2.746l2.087,1.225-.281,1.011-.281,1.011-2.414-.048a8.754,8.754,0,0,0,.412,3.468l2.335-.622.51.915.51.916L34.7,14.383a8.627,8.627,0,0,0,2.722,2.158l1.215-2.105,1,.284,1,.283-.048,2.435a8.532,8.532,0,0,0,3.439-.416l-.617-2.355.908-.514.907-.515L46.9,15.4a8.673,8.673,0,0,0,2.14-2.746l-2.087-1.225.281-1.011L47.517,9.4l2.415.048a8.747,8.747,0,0,0-.412-3.469L47.185,6.6Zm-1.886,2.63a3.512,3.512,0,1,1-3.9-3.1,3.535,3.535,0,0,1,3.9,3.1" transform="translate(-13.862 0)" fill="#97a2b6"/>
    </g>
  </g>
</svg>
