<svg xmlns="http://www.w3.org/2000/svg" xmlns:xlink="http://www.w3.org/1999/xlink" width="42" height="55" viewBox="0 0 42 55">
  <defs>
    <clipPath id="clip-path">
      <rect id="Rectangle_405" data-name="Rectangle 405" width="42" height="55" fill="#97a2b6"/>
    </clipPath>
  </defs>
  <g id="Group_162" data-name="Group 162" transform="translate(0 0)">
    <g id="Group_156" data-name="Group 156" transform="translate(0 0)" clip-path="url(#clip-path)">
      <path id="Path_221" data-name="Path 221" d="M24.942,37.948A15.777,15.777,0,1,0,40.547,53.725,15.71,15.71,0,0,0,24.942,37.948m1.072,10.373a39.381,39.381,0,0,0,4.967-.449,38.524,38.524,0,0,1,.428,4.768h-5.4Zm0-2.169V40.159a13.262,13.262,0,0,1,3.171.651,37.76,37.76,0,0,1,1.4,4.93,37.248,37.248,0,0,1-4.575.413m-2.145,0a37.248,37.248,0,0,1-4.575-.413,37.76,37.76,0,0,1,1.4-4.93,13.262,13.262,0,0,1,3.171-.651Zm0,2.169V52.64h-5.4a38.406,38.406,0,0,1,.428-4.768,39.381,39.381,0,0,0,4.967.449M16.328,52.64h-4.8a13.624,13.624,0,0,1,1.938-6.014q1.647.5,3.33.859a40.634,40.634,0,0,0-.463,5.155m0,2.168a40.633,40.633,0,0,0,.463,5.156q-1.682.356-3.33.859a13.619,13.619,0,0,1-1.938-6.014Zm2.146,0h5.4v4.32a39.267,39.267,0,0,0-4.967.449,38.545,38.545,0,0,1-.428-4.768m5.4,6.488V67.29a13.232,13.232,0,0,1-3.171-.65,37.815,37.815,0,0,1-1.4-4.93,37.258,37.258,0,0,1,4.575-.413m2.145,0a37.248,37.248,0,0,1,4.575.413,37.665,37.665,0,0,1-1.4,4.93,13.232,13.232,0,0,1-3.171.65Zm0-2.169v-4.32h5.4a38.416,38.416,0,0,1-.428,4.768,39.267,39.267,0,0,0-4.967-.449m7.541-4.32h4.8a13.619,13.619,0,0,1-1.938,6.014q-1.647-.5-3.33-.859a40.633,40.633,0,0,0,.463-5.156m0-2.168a40.634,40.634,0,0,0-.463-5.155q1.682-.356,3.33-.859A13.619,13.619,0,0,1,38.36,52.64Zm1.511-7.873q-1.173.333-2.365.586-.351-1.665-.842-3.3a13.584,13.584,0,0,1,3.207,2.712M18.025,42.055q-.492,1.631-.842,3.3-1.192-.254-2.365-.586a13.584,13.584,0,0,1,3.207-2.712M14.817,62.682q1.173-.333,2.365-.586.351,1.665.842,3.3a13.6,13.6,0,0,1-3.207-2.712m17.042,2.712q.492-1.631.842-3.3,1.192.254,2.365.586a13.584,13.584,0,0,1-3.207,2.712" transform="translate(-3.63 -14.501)" fill="#97a2b6"/>
      <path id="Path_222" data-name="Path 222" d="M20.184,34.519v-5.46H15.1v9a17.211,17.211,0,0,1,5.083-3.54" transform="translate(-5.872 -11.104)" fill="#97a2b6"/>
      <path id="Path_223" data-name="Path 223" d="M4.178,56.932a17.43,17.43,0,0,1,.9-5.558V46.34H0V63.118H5.083v-.629a17.43,17.43,0,0,1-.9-5.558" transform="translate(0 -17.708)" fill="#97a2b6"/>
      <path id="Path_224" data-name="Path 224" d="M60.4,0V32.076a17.488,17.488,0,0,1,.407,13.309h4.676V0Z" transform="translate(-23.486 0)" fill="#97a2b6"/>
      <path id="Path_225" data-name="Path 225" d="M50.385,33.78V19.422H45.3V30.569a17.147,17.147,0,0,1,5.083,3.21" transform="translate(-17.614 -7.422)" fill="#97a2b6"/>
      <path id="Path_226" data-name="Path 226" d="M33.054,25.991a16.916,16.916,0,0,1,2.23.147V10.7H30.2V26.233a16.909,16.909,0,0,1,2.853-.242" transform="translate(-11.743 -4.088)" fill="#97a2b6"/>
    </g>
  </g>
</svg>
