<svg id="Group_151" data-name="Group 151" xmlns="http://www.w3.org/2000/svg" xmlns:xlink="http://www.w3.org/1999/xlink" width="55" height="55" viewBox="0 0 55 55">
  <defs>
    <clipPath id="clip-path">
      <rect id="Rectangle_394" data-name="Rectangle 394" width="55" height="55" fill="#97a2b6"/>
    </clipPath>
  </defs>
  <g id="Group_151-2" data-name="Group 151" clip-path="url(#clip-path)">
    <path id="Path_191" data-name="Path 191" d="M31.274,53.4A22.13,22.13,0,1,1,53.4,31.274,22.155,22.155,0,0,1,31.274,53.4m0-41.18A19.049,19.049,0,1,0,50.324,31.274,19.071,19.071,0,0,0,31.274,12.225" transform="translate(-3.774 -3.774)" fill="#97a2b6"/>
    <rect id="Rectangle_390" data-name="Rectangle 390" width="3.081" height="12.221" transform="translate(25.96)" fill="#97a2b6"/>
    <rect id="Rectangle_391" data-name="Rectangle 391" width="12.221" height="3.081" transform="translate(0 25.96)" fill="#97a2b6"/>
    <rect id="Rectangle_392" data-name="Rectangle 392" width="3.081" height="12.221" transform="translate(25.96 42.779)" fill="#97a2b6"/>
    <rect id="Rectangle_393" data-name="Rectangle 393" width="12.221" height="3.081" transform="translate(42.779 25.96)" fill="#97a2b6"/>
    <path id="Path_192" data-name="Path 192" d="M44.531,38.857a3.953,3.953,0,0,1-.645.058,3.91,3.91,0,0,1-.652-.059c-3.065.52-3.4,1.354-3.4,1.354a21.364,21.364,0,0,0,.315,7.125,4.14,4.14,0,0,0,.82,1.325c.137,1.173.27,2.141.394,2.944q.07.449.135.831a9.361,9.361,0,0,0,.732,2.908h3.294a9.361,9.361,0,0,0,.732-2.908q.066-.382.135-.831c.124-.8.257-1.77.393-2.944a4.161,4.161,0,0,0,.822-1.325,21.4,21.4,0,0,0,.315-7.125s-.334-.832-3.392-1.352" transform="translate(-16.386 -16.039)" fill="#97a2b6"/>
    <path id="Path_193" data-name="Path 193" d="M43.9,33.126a3.232,3.232,0,1,0-2.577-3.165A3.25,3.25,0,0,0,43.9,33.126" transform="translate(-17.059 -11.033)" fill="#97a2b6"/>
    <path id="Path_194" data-name="Path 194" d="M62.388,38.875s-.221-.551-2.247-.9a2.455,2.455,0,0,1-.859,0c-2.031.344-2.252.9-2.252.9a14.165,14.165,0,0,0,.209,4.721,2.749,2.749,0,0,0,.543.878c.091.777.179,1.419.261,1.95.031.2.061.382.09.551a6.216,6.216,0,0,0,.485,1.927H60.8a6.211,6.211,0,0,0,.484-1.927c.029-.169.059-.352.09-.551.082-.531.17-1.173.261-1.95a2.752,2.752,0,0,0,.544-.878,14.2,14.2,0,0,0,.208-4.721" transform="translate(-23.503 -15.677)" fill="#97a2b6"/>
    <path id="Path_195" data-name="Path 195" d="M59.726,34.181a2.159,2.159,0,0,0,.434.044,2.118,2.118,0,0,0,.43-.043,2.141,2.141,0,1,0-.864,0" transform="translate(-23.949 -12.36)" fill="#97a2b6"/>
    <path id="Path_196" data-name="Path 196" d="M30.485,37.977a2.418,2.418,0,0,1-.859,0c-2.026.345-2.247.9-2.247.9a14.176,14.176,0,0,0,.208,4.721,2.752,2.752,0,0,0,.544.878c.091.777.179,1.419.261,1.951q.046.3.089.55a6.207,6.207,0,0,0,.485,1.927h2.183a6.207,6.207,0,0,0,.485-1.927q.043-.253.089-.55c.082-.532.17-1.173.261-1.951a2.738,2.738,0,0,0,.543-.878,14.153,14.153,0,0,0,.21-4.721s-.221-.552-2.252-.9" transform="translate(-11.263 -15.676)" fill="#97a2b6"/>
    <path id="Path_197" data-name="Path 197" d="M30.061,34.181a2.141,2.141,0,1,0-1.713-2.1,2.16,2.16,0,0,0,1.713,2.1" transform="translate(-11.702 -12.36)" fill="#97a2b6"/>
  </g>
</svg>
