<svg xmlns="http://www.w3.org/2000/svg" xmlns:xlink="http://www.w3.org/1999/xlink" width="55" height="55" viewBox="0 0 55 55">
  <defs>
    <clipPath id="clip-path">
      <rect id="Rectangle_406" data-name="Rectangle 406" width="55" height="55" fill="#97a2b6"/>
    </clipPath>
  </defs>
  <g id="Group_161" data-name="Group 161" transform="translate(0 0)">
    <g id="Group_158" data-name="Group 158" transform="translate(0 0)" clip-path="url(#clip-path)">
      <path id="Path_227" data-name="Path 227" d="M42.458,38.751A8,8,0,0,1,36.763,36.4c-.173-.173-.34-.356-.5-.545a7.984,7.984,0,0,1-.836-1.23l.209-.209a2.191,2.191,0,0,1,.976-.565,2.233,2.233,0,0,1,.577-.076,2.2,2.2,0,0,1,1.554.642l.136.153.075.057a5.3,5.3,0,0,0,.772.492l.043.023a3.391,3.391,0,0,0,.554.224l.033.01a5.181,5.181,0,0,0,2.1.449,5.083,5.083,0,0,0,3-.965,5.173,5.173,0,0,0,.622-.53l5.876-5.876A5.126,5.126,0,0,0,44.709,21.2l-4.28,4.281A10.993,10.993,0,0,0,37.19,25c-.142,0-.284,0-.427.008l5.873-5.873a8.054,8.054,0,0,1,11.391,11.39L48.152,36.4a8,8,0,0,1-5.694,2.355Z" transform="translate(-12.321 -5.834)" fill="#97a2b6"/>
      <path id="Path_228" data-name="Path 228" d="M27.5,0A27.5,27.5,0,1,0,55,27.5,27.531,27.531,0,0,0,27.5,0M20.021,4.988A23.572,23.572,0,0,1,25.61,3.854V14.3a66.265,66.265,0,0,1-8.063-.719,65.369,65.369,0,0,1,2.474-8.593m-4.711,2.17q-.867,2.844-1.485,5.75-2.1-.443-4.169-1.021a23.9,23.9,0,0,1,5.653-4.728M7.269,15.127q2.9.879,5.868,1.5a70.043,70.043,0,0,0-.816,8.986H3.854A23.56,23.56,0,0,1,7.269,15.127M34.979,50.012a23.578,23.578,0,0,1-5.589,1.134V40.7a66.277,66.277,0,0,1,8.063.719,65.368,65.368,0,0,1-2.474,8.593m-3.3-12.995-5.838,5.838c-.077.076-.156.149-.234.223v8.067a23.572,23.572,0,0,1-5.589-1.134q-.78-2.146-1.406-4.334a9.622,9.622,0,0,1-4.22-1.147c.279,1.11.581,2.214.916,3.311a23.886,23.886,0,0,1-5.652-4.728q1.09-.306,2.19-.572a9.667,9.667,0,0,1-2.017-3.386c-.858.224-1.712.46-2.562.718A23.565,23.565,0,0,1,3.854,29.39h8.074q.11-.12.219-.23l3.971-3.97a66.159,66.159,0,0,1,.74-7.89q3.208.492,6.467.684l5.838-5.839c.074-.074.151-.144.227-.216V3.854a23.566,23.566,0,0,1,5.588,1.134q.781,2.146,1.406,4.334A9.628,9.628,0,0,1,40.6,10.463c-.279-1.108-.581-2.211-.914-3.306a23.9,23.9,0,0,1,5.652,4.728q-1.088.305-2.186.571a9.623,9.623,0,0,1,2.012,3.388c.858-.224,1.713-.461,2.563-.718A23.544,23.544,0,0,1,51.145,25.61H43.078c-.072.077-.143.155-.219.23l-3.978,3.978a66.018,66.018,0,0,1-.74,7.882q-3.2-.491-6.459-.683m8.006,10.825q.867-2.844,1.485-5.75,2.1.443,4.168,1.021a23.911,23.911,0,0,1-5.652,4.728m8.041-7.968q-2.9-.879-5.868-1.5a70.054,70.054,0,0,0,.816-8.986h8.467A23.549,23.549,0,0,1,47.73,39.873" transform="translate(0 0)" fill="#97a2b6"/>
      <path id="Path_229" data-name="Path 229" d="M24.829,55.83A8.041,8.041,0,0,1,18.3,43.083c.065-.09.125-.175.189-.258s.118-.149.182-.225c.173-.208.32-.37.464-.515l5.875-5.875a8.065,8.065,0,0,1,11.39,0,7.889,7.889,0,0,1,1.331,1.775l-.208.209a2.209,2.209,0,0,1-2.458.443l-.193-.112-.212-.038a1.565,1.565,0,0,1-.181-.1l-.1-.061-.049-.049a4.981,4.981,0,0,0-.392-.354l-.042-.033c-.123-.1-.249-.188-.377-.273s-.269-.168-.408-.241c-.039-.022-.083-.042-.126-.063-.123-.059-.21-.1-.3-.138-.057-.023-.111-.044-.164-.063l-.164-.059-.111-.037c-.077-.024-.149-.044-.22-.063s-.149-.038-.224-.055-.162-.033-.241-.047-.135-.02-.2-.029c-.091-.012-.18-.022-.27-.029l-.123-.006c-.117-.005-.2-.008-.289-.008l-.122,0a5.12,5.12,0,0,0-1.563.292l-.1.035c-.1.037-.194.078-.291.121l-.138.064c-.091.045-.176.089-.26.136-.056.031-.116.067-.175.1-.086.053-.151.093-.215.137-.035.024-.222.164-.222.164-.071.053-.111.083-.15.115-.125.1-.246.211-.361.327L21.2,44.156A5.125,5.125,0,0,0,28.453,51.4l4.28-4.28a10.989,10.989,0,0,0,3.238.485q.213,0,.427-.008l-5.873,5.873a8,8,0,0,1-5.695,2.355" transform="translate(-5.832 -11.773)" fill="#97a2b6"/>
    </g>
  </g>
</svg>
