<svg xmlns="http://www.w3.org/2000/svg" width="281.502" height="270" viewBox="0 0 281.502 270">
  <g id="Group_11" data-name="Group 11" transform="translate(-0.277 -0.4)">
    <rect id="Rectangle_220" data-name="Rectangle 220" width="48.692" height="54.519" rx="8.831" transform="translate(0.277 215.88)" fill="#bfc8d6"/>
    <rect id="Rectangle_221" data-name="Rectangle 221" width="48.692" height="119.539" rx="8.831" transform="translate(58.48 150.862)" fill="#bfc8d6"/>
    <rect id="Rectangle_222" data-name="Rectangle 222" width="48.692" height="94.004" rx="8.831" transform="translate(116.683 176.396)" fill="#bfc8d6"/>
    <rect id="Rectangle_223" data-name="Rectangle 223" width="48.692" height="269.999" rx="8.831" transform="translate(174.885 0.4)" fill="#07f"/>
    <rect id="Rectangle_224" data-name="Rectangle 224" width="48.692" height="170.999" rx="8.831" transform="translate(233.088 99.4)" fill="#bfc8d6"/>
    <path id="Path_107" data-name="Path 107" d="M25.673,216.724a2.663,2.663,0,0,1-1.309-.324,2.758,2.758,0,0,1-.974-.954l.629-.7a3.565,3.565,0,0,0,.859.744,1.64,1.64,0,0,0,.8.2,1.6,1.6,0,0,0,.775-.189,1.425,1.425,0,0,0,.545-.514,1.3,1.3,0,0,0,.21-.723,1.4,1.4,0,0,0-.2-.744,1.425,1.425,0,0,0-1.247-.722,2.186,2.186,0,0,0-.377.031,1.889,1.889,0,0,0-.43.115q-.251.095-.66.293l-.6-.806.43-3.111h3.96v1.047H25.024l-.241,1.624a2.7,2.7,0,0,1,.566-.168,2.762,2.762,0,0,1,.608-.073,2.271,2.271,0,0,1,1.194.315,2.172,2.172,0,0,1,.838.848,2.448,2.448,0,0,1,.314,1.246,2.532,2.532,0,0,1-.346,1.31,2.6,2.6,0,0,1-.943.922A2.692,2.692,0,0,1,25.673,216.724Zm5.7-3.52a1.446,1.446,0,0,1-.838-.252,1.824,1.824,0,0,1-.566-.7,2.749,2.749,0,0,1,0-2.054,1.678,1.678,0,0,1,.576-.712,1.4,1.4,0,0,1,.838-.262,1.356,1.356,0,0,1,.828.262,1.608,1.608,0,0,1,.566.712,2.409,2.409,0,0,1,.21,1.027,2.354,2.354,0,0,1-.21,1.006,1.77,1.77,0,0,1-.576.713A1.391,1.391,0,0,1,31.376,213.2Zm-.67,3.446,4.85-7.333h1.079l-4.9,7.333Zm.681-4.232a.584.584,0,0,0,.524-.314,2.044,2.044,0,0,0,0-1.76.589.589,0,0,0-.534-.325.6.6,0,0,0-.534.335,2,2,0,0,0,0,1.739A.611.611,0,0,0,31.386,212.419Zm4.63,4.326a1.406,1.406,0,0,1-.838-.261,1.832,1.832,0,0,1-.566-.7,2.383,2.383,0,0,1-.21-1.016,2.513,2.513,0,0,1,.2-1.027,1.684,1.684,0,0,1,.576-.713,1.407,1.407,0,0,1,.838-.262,1.361,1.361,0,0,1,.828.262,1.614,1.614,0,0,1,.566.713,2.4,2.4,0,0,1,.21,1.027,2.356,2.356,0,0,1-.21,1.006,1.779,1.779,0,0,1-.576.713A1.344,1.344,0,0,1,36.017,216.745Zm0-.775a.6.6,0,0,0,.534-.324,1.714,1.714,0,0,0,.2-.88,1.655,1.655,0,0,0-.2-.87.6.6,0,0,0-.534-.335.612.612,0,0,0-.545.324,1.677,1.677,0,0,0-.2.88,1.714,1.714,0,0,0,.2.88A.612.612,0,0,0,36.017,215.97Z" transform="translate(-5.958 42.788)" fill="#07124a"/>
    <path id="Path_108" data-name="Path 108" d="M97.689,216.647l-.346-.859,2.242-2.524q.23-.263.492-.6a4.209,4.209,0,0,0,.461-.691,1.421,1.421,0,0,0,.189-.661,1,1,0,0,0-.293-.775,1.114,1.114,0,0,0-.807-.283,1.3,1.3,0,0,0-.88.4,2.246,2.246,0,0,0-.629,1.038l-.87-.545a2.657,2.657,0,0,1,.932-1.425,2.555,2.555,0,0,1,1.582-.513,2.269,2.269,0,0,1,1.1.261,1.856,1.856,0,0,1,.754.713,1.983,1.983,0,0,1,.272,1.048,2.792,2.792,0,0,1-.356,1.289,7.479,7.479,0,0,1-1.142,1.539l-1.373,1.5h3.1v1.089Zm7.876.073a2.661,2.661,0,0,1-1.309-.324,2.758,2.758,0,0,1-.975-.954l.629-.7a3.566,3.566,0,0,0,.859.744,1.64,1.64,0,0,0,.8.2,1.592,1.592,0,0,0,.775-.189,1.423,1.423,0,0,0,.545-.514,1.3,1.3,0,0,0,.209-.723,1.394,1.394,0,0,0-.2-.744,1.423,1.423,0,0,0-1.246-.722,2.184,2.184,0,0,0-.377.031,1.893,1.893,0,0,0-.43.115q-.252.095-.66.293l-.6-.806.43-3.111h3.96v1.047h-3.059l-.241,1.624a2.717,2.717,0,0,1,.566-.168,2.766,2.766,0,0,1,.608-.073,2.273,2.273,0,0,1,1.194.315,2.172,2.172,0,0,1,.838.848,2.45,2.45,0,0,1,.314,1.246,2.535,2.535,0,0,1-.345,1.31,2.6,2.6,0,0,1-.943.922A2.69,2.69,0,0,1,105.566,216.721Zm5.7-3.52a1.444,1.444,0,0,1-.838-.252,1.822,1.822,0,0,1-.566-.7,2.74,2.74,0,0,1,0-2.054,1.678,1.678,0,0,1,.576-.712,1.4,1.4,0,0,1,.838-.262,1.357,1.357,0,0,1,.828.262,1.61,1.61,0,0,1,.566.712,2.411,2.411,0,0,1,.209,1.026,2.356,2.356,0,0,1-.209,1.006,1.77,1.77,0,0,1-.576.713A1.39,1.39,0,0,1,111.268,213.2Zm-.67,3.446,4.85-7.332h1.079l-4.9,7.332Zm.681-4.232a.585.585,0,0,0,.524-.314,2.046,2.046,0,0,0,0-1.76.59.59,0,0,0-.534-.325.6.6,0,0,0-.534.335,2,2,0,0,0,0,1.739A.611.611,0,0,0,111.279,212.415Zm4.63,4.326a1.408,1.408,0,0,1-.838-.261,1.829,1.829,0,0,1-.566-.7,2.385,2.385,0,0,1-.209-1.016,2.51,2.51,0,0,1,.2-1.027,1.684,1.684,0,0,1,.576-.713,1.408,1.408,0,0,1,.838-.262,1.36,1.36,0,0,1,.828.262,1.613,1.613,0,0,1,.566.713,2.406,2.406,0,0,1,.209,1.027,2.358,2.358,0,0,1-.209,1.006,1.782,1.782,0,0,1-.577.713A1.344,1.344,0,0,1,115.909,216.741Zm0-.775a.6.6,0,0,0,.534-.324,1.712,1.712,0,0,0,.2-.88,1.654,1.654,0,0,0-.2-.87.6.6,0,0,0-.534-.335.613.613,0,0,0-.545.324,1.683,1.683,0,0,0-.2.88,1.72,1.72,0,0,0,.2.88A.613.613,0,0,0,115.909,215.967Z" transform="translate(-24.996 42.792)" fill="#07124a"/>
    <path id="Path_109" data-name="Path 109" d="M177.625,216.647v-1.089h1.163v-4.871l-1.058.555-.3-.985,1.959-1.047h.545v6.348h1.194v1.089Zm7.239.073a2.663,2.663,0,0,1-1.309-.324,2.758,2.758,0,0,1-.975-.954l.629-.7a3.566,3.566,0,0,0,.859.744,1.642,1.642,0,0,0,.8.2,1.592,1.592,0,0,0,.775-.189,1.418,1.418,0,0,0,.545-.514,1.3,1.3,0,0,0,.21-.723,1.4,1.4,0,0,0-.2-.744,1.426,1.426,0,0,0-1.247-.722,2.184,2.184,0,0,0-.377.031,1.892,1.892,0,0,0-.43.115q-.252.095-.66.293l-.6-.806.429-3.111h3.96v1.047h-3.059l-.241,1.624a2.711,2.711,0,0,1,.566-.168,2.754,2.754,0,0,1,.607-.073,2.271,2.271,0,0,1,1.194.315,2.172,2.172,0,0,1,.838.848,2.443,2.443,0,0,1,.315,1.246,2.536,2.536,0,0,1-.346,1.31,2.605,2.605,0,0,1-.943.922A2.694,2.694,0,0,1,184.864,216.721Zm5.7-3.52a1.446,1.446,0,0,1-.838-.252,1.822,1.822,0,0,1-.566-.7,2.75,2.75,0,0,1,0-2.054,1.678,1.678,0,0,1,.576-.712,1.4,1.4,0,0,1,.838-.262,1.355,1.355,0,0,1,.828.262,1.6,1.6,0,0,1,.566.712,2.4,2.4,0,0,1,.21,1.026,2.345,2.345,0,0,1-.21,1.006,1.77,1.77,0,0,1-.576.713A1.39,1.39,0,0,1,190.566,213.2Zm-.67,3.446,4.85-7.332h1.078l-4.9,7.332Zm.681-4.232a.584.584,0,0,0,.524-.314,2.046,2.046,0,0,0,0-1.76.588.588,0,0,0-.534-.325.6.6,0,0,0-.534.335,2,2,0,0,0,0,1.739A.612.612,0,0,0,190.577,212.415Zm4.631,4.326a1.408,1.408,0,0,1-.839-.261,1.843,1.843,0,0,1-.566-.7,2.385,2.385,0,0,1-.209-1.016,2.51,2.51,0,0,1,.2-1.027,1.684,1.684,0,0,1,.576-.713,1.409,1.409,0,0,1,.839-.262,1.362,1.362,0,0,1,.828.262,1.617,1.617,0,0,1,.566.713,2.407,2.407,0,0,1,.209,1.027,2.359,2.359,0,0,1-.209,1.006,1.776,1.776,0,0,1-.577.713A1.341,1.341,0,0,1,195.208,216.741Zm0-.775a.6.6,0,0,0,.534-.324,1.712,1.712,0,0,0,.2-.88,1.653,1.653,0,0,0-.2-.87.6.6,0,0,0-.534-.335.611.611,0,0,0-.545.324,1.676,1.676,0,0,0-.2.88,1.712,1.712,0,0,0,.2.88A.611.611,0,0,0,195.208,215.967Z" transform="translate(-45.663 42.792)" fill="#07124a"/>
    <path id="Path_110" data-name="Path 110" d="M256.652,216.756a2.519,2.519,0,0,1-1.352-.356,3.5,3.5,0,0,1-1.068-1.194l.88-.555a3.007,3.007,0,0,0,.776.848,1.516,1.516,0,0,0,.848.262,1.357,1.357,0,0,0,.681-.178,1.416,1.416,0,0,0,.5-.514,1.435,1.435,0,0,0,.189-.733,1.289,1.289,0,0,0-.335-.953,1.21,1.21,0,0,0-.911-.335,3.553,3.553,0,0,0-1.267.315l-.315-.828,1.97-2.169H254.64v-1.047h4.2l.209.419L257,212.01a2.07,2.07,0,0,1,1.11.3,2.237,2.237,0,0,1,.8.817,2.265,2.265,0,0,1,.293,1.142,2.4,2.4,0,0,1-.346,1.278,2.452,2.452,0,0,1-.911.88A2.575,2.575,0,0,1,256.652,216.756Zm6.027-.032a2.661,2.661,0,0,1-1.309-.324,2.757,2.757,0,0,1-.975-.954l.629-.7a3.566,3.566,0,0,0,.859.744,1.64,1.64,0,0,0,.8.2,1.592,1.592,0,0,0,.775-.189,1.423,1.423,0,0,0,.545-.514,1.3,1.3,0,0,0,.209-.723,1.394,1.394,0,0,0-.2-.744,1.423,1.423,0,0,0-1.246-.722,2.184,2.184,0,0,0-.377.031,1.892,1.892,0,0,0-.43.115q-.252.095-.66.293l-.6-.806.43-3.111h3.96v1.047h-3.059l-.241,1.624a2.718,2.718,0,0,1,.566-.168,2.766,2.766,0,0,1,.608-.073,2.273,2.273,0,0,1,1.194.315,2.172,2.172,0,0,1,.838.848,2.449,2.449,0,0,1,.314,1.246,2.535,2.535,0,0,1-.345,1.31,2.6,2.6,0,0,1-.943.922A2.69,2.69,0,0,1,262.679,216.724Zm5.7-3.52a1.444,1.444,0,0,1-.838-.252,1.822,1.822,0,0,1-.566-.7,2.741,2.741,0,0,1,0-2.054,1.678,1.678,0,0,1,.576-.712,1.4,1.4,0,0,1,.838-.262,1.357,1.357,0,0,1,.828.262,1.611,1.611,0,0,1,.566.712,2.411,2.411,0,0,1,.209,1.027,2.356,2.356,0,0,1-.209,1.006,1.77,1.77,0,0,1-.576.713A1.39,1.39,0,0,1,268.381,213.2Zm-.67,3.446,4.85-7.333h1.079l-4.9,7.333Zm.681-4.232a.585.585,0,0,0,.524-.314,2.046,2.046,0,0,0,0-1.76.59.59,0,0,0-.534-.325.6.6,0,0,0-.534.335,2,2,0,0,0,0,1.739A.611.611,0,0,0,268.392,212.419Zm4.63,4.326a1.408,1.408,0,0,1-.838-.261,1.83,1.83,0,0,1-.566-.7,2.385,2.385,0,0,1-.209-1.016,2.51,2.51,0,0,1,.2-1.027,1.684,1.684,0,0,1,.576-.713,1.408,1.408,0,0,1,.838-.262,1.36,1.36,0,0,1,.828.262,1.613,1.613,0,0,1,.566.713,2.406,2.406,0,0,1,.209,1.027,2.358,2.358,0,0,1-.209,1.006,1.782,1.782,0,0,1-.577.713A1.344,1.344,0,0,1,273.022,216.745Zm0-.775a.6.6,0,0,0,.534-.324,1.712,1.712,0,0,0,.2-.88,1.653,1.653,0,0,0-.2-.87.6.6,0,0,0-.534-.335.613.613,0,0,0-.545.324,1.683,1.683,0,0,0-.2.88,1.72,1.72,0,0,0,.2.88A.613.613,0,0,0,273.022,215.97Z" transform="translate(-6.489 42.788)" fill="#07124a"/>
    <path id="Path_111" data-name="Path 111" d="M335.563,216.651v-1.99h-2.892l-.482-.943,3.593-4.4h.87v4.306h1.277v1.037h-1.277v1.99Zm-2.043-3.027h2.043V211.13Zm7.963,3.1a2.664,2.664,0,0,1-1.31-.324,2.762,2.762,0,0,1-.974-.954l.629-.7a3.565,3.565,0,0,0,.859.744,1.64,1.64,0,0,0,.8.2,1.592,1.592,0,0,0,.775-.189,1.423,1.423,0,0,0,.545-.514,1.3,1.3,0,0,0,.209-.723,1.394,1.394,0,0,0-.2-.744,1.423,1.423,0,0,0-1.246-.722,2.184,2.184,0,0,0-.377.031,1.893,1.893,0,0,0-.43.115q-.252.095-.66.293l-.6-.806.43-3.111h3.96v1.047h-3.059l-.241,1.624a2.7,2.7,0,0,1,.566-.168,2.766,2.766,0,0,1,.608-.073,2.273,2.273,0,0,1,1.194.315,2.172,2.172,0,0,1,.838.848,2.45,2.45,0,0,1,.314,1.246,2.535,2.535,0,0,1-.345,1.31,2.6,2.6,0,0,1-.943.922A2.69,2.69,0,0,1,341.483,216.724Zm5.7-3.52a1.444,1.444,0,0,1-.838-.252,1.822,1.822,0,0,1-.566-.7,2.741,2.741,0,0,1,0-2.054,1.672,1.672,0,0,1,.576-.712,1.4,1.4,0,0,1,.838-.262,1.357,1.357,0,0,1,.828.262,1.611,1.611,0,0,1,.566.712,2.411,2.411,0,0,1,.209,1.027,2.356,2.356,0,0,1-.209,1.006,1.77,1.77,0,0,1-.576.713A1.392,1.392,0,0,1,347.186,213.2Zm-.67,3.446,4.85-7.333h1.079l-4.9,7.333Zm.681-4.232a.585.585,0,0,0,.524-.314,2.046,2.046,0,0,0,0-1.76.59.59,0,0,0-.534-.325.6.6,0,0,0-.534.335,2,2,0,0,0,0,1.739A.611.611,0,0,0,347.2,212.419Zm4.63,4.326a1.406,1.406,0,0,1-.838-.261,1.83,1.83,0,0,1-.566-.7,2.385,2.385,0,0,1-.209-1.016,2.511,2.511,0,0,1,.2-1.027,1.684,1.684,0,0,1,.576-.713,1.407,1.407,0,0,1,.838-.262,1.36,1.36,0,0,1,.828.262,1.607,1.607,0,0,1,.566.713,2.4,2.4,0,0,1,.21,1.027,2.348,2.348,0,0,1-.21,1.006,1.781,1.781,0,0,1-.576.713A1.344,1.344,0,0,1,351.826,216.745Zm0-.775a.6.6,0,0,0,.534-.324,1.712,1.712,0,0,0,.2-.88,1.653,1.653,0,0,0-.2-.87.6.6,0,0,0-.534-.335.613.613,0,0,0-.545.324,1.683,1.683,0,0,0-.2.88,1.72,1.72,0,0,0,.2.88A.613.613,0,0,0,351.826,215.97Z" transform="translate(-143.419 42.777)" fill="#fff"/>
  </g>
</svg>
