<svg id="Group_163" data-name="Group 163" xmlns="http://www.w3.org/2000/svg" xmlns:xlink="http://www.w3.org/1999/xlink" width="59" height="55" viewBox="0 0 59 55">
  <defs>
    <clipPath id="clip-path">
      <rect id="Rectangle_404" data-name="Rectangle 404" width="59" height="55" fill="#97a2b6"/>
    </clipPath>
  </defs>
  <g id="Group_154" data-name="Group 154" transform="translate(0 0)" clip-path="url(#clip-path)">
    <path id="Path_211" data-name="Path 211" d="M31.7,31.43V46.7a2.317,2.317,0,0,0,2.312,2.323H49.2A2.317,2.317,0,0,0,51.508,46.7V31.43A2.317,2.317,0,0,0,49.2,29.107H34.011A2.317,2.317,0,0,0,31.7,31.43m14.1,8.208L38.853,45.4c-.537.311-.976.056-.976-.568l0-4.639c0-.623,0-1.643,0-2.266l0-4.639c0-.624.44-.878.977-.566L45.8,38.505a.6.6,0,0,1,0,1.133" transform="translate(-12.31 -11.208)" fill="#97a2b6"/>
    <path id="Path_212" data-name="Path 212" d="M87.129,63.582H77.048s-.218-1.457.675-2.1,2.263-.3,3.116-1.437c0,0,.317-.359-.4-1.237a4.4,4.4,0,0,1-.6-3.352,2.3,2.3,0,0,1,4.484,0,4.4,4.4,0,0,1-.6,3.352c-.714.878-.4,1.237-.4,1.237.854,1.138,2.223.8,3.116,1.437s.675,2.1.675,2.1" transform="translate(-29.911 -20.664)" fill="#97a2b6" fill-rule="evenodd"/>
    <path id="Path_213" data-name="Path 213" d="M41.162,7.05a.486.486,0,1,1-.973,0v-2.5a.486.486,0,1,1,.973,0Z" transform="translate(-15.607 -1.564)" fill="#97a2b6"/>
    <path id="Path_214" data-name="Path 214" d="M54.688,7.757a.713.713,0,1,1-1.426,0V.717a.713.713,0,1,1,1.426,0Z" transform="translate(-20.683 0)" fill="#97a2b6"/>
    <path id="Path_215" data-name="Path 215" d="M41.143,3.243V5.72l8.126,2.607V.636Zm6.505.66H42.31V3.462L47.648,1.94Z" transform="translate(-15.977 -0.245)" fill="#97a2b6"/>
    <path id="Path_216" data-name="Path 216" d="M45.577,10.991a1.08,1.08,0,0,1-.339-.055l-1.409-.462a1.1,1.1,0,0,1-.7-1.385l.152-.467a1.089,1.089,0,0,1,1.378-.7l1.409.462a1.1,1.1,0,0,1,.7,1.385l-.152.466a1.091,1.091,0,0,1-1.039.758M44.319,8.6a.364.364,0,0,0-.346.253l-.152.467a.367.367,0,0,0,.234.462l1.409.462a.354.354,0,0,0,.113.018.363.363,0,0,0,.346-.253l.152-.467a.367.367,0,0,0-.233-.462l-1.409-.462a.358.358,0,0,0-.113-.018" transform="translate(-16.727 -3.028)" fill="#97a2b6"/>
    <path id="Path_217" data-name="Path 217" d="M7.271,55.792H2.909A2.916,2.916,0,0,0,0,58.716V59.3a2.917,2.917,0,0,0,2.909,2.925H5.188l2.521,2.534V62.192A2.921,2.921,0,0,0,10.18,59.3v-.584a2.917,2.917,0,0,0-2.909-2.924" transform="translate(0 -21.483)" fill="#97a2b6"/>
    <rect id="Rectangle_397" data-name="Rectangle 397" width="2.105" height="4.573" transform="translate(48.37 14.872)" fill="#97a2b6"/>
    <path id="Path_218" data-name="Path 218" d="M91.607,21.7a24.259,24.259,0,0,1-1.786,3.848c-.191.256-5.1.641-5.422,0V21.567s1.978-4.489,2.551-4.746.957.192.957.769a19.136,19.136,0,0,1-.574,2.63h3.891c.829,0,.511.77.383,1.475" transform="translate(-32.774 -6.449)" fill="#97a2b6"/>
    <path id="Path_219" data-name="Path 219" d="M13.066,22.4a4.613,4.613,0,0,1-2.165,2.57c-1.222.874-2.162,1.4-2.588,1.785,0,0-1.381-.956-1.825-1.3a10.7,10.7,0,0,1-2.482-2.422,2.721,2.721,0,0,1-.034-2.661,2.694,2.694,0,0,1,3.261-1.331,2,2,0,0,1,1.147,1.351A2.172,2.172,0,0,1,10.883,19a2.655,2.655,0,0,1,2.184,3.4" transform="translate(-1.415 -7.278)" fill="#97a2b6"/>
    <path id="Path_220" data-name="Path 220" d="M47.575,83.514V84.5h-.942v-.918A3.848,3.848,0,0,1,45,83.166l.288-1.131a3.388,3.388,0,0,0,1.6.426c.548,0,.923-.213.923-.6,0-.368-.308-.6-1.019-.841-1.029-.348-1.731-.831-1.731-1.769a1.782,1.782,0,0,1,1.625-1.72v-.919h.942v.851a3.442,3.442,0,0,1,1.395.319l-.279,1.092a3.186,3.186,0,0,0-1.385-.328c-.625,0-.827.271-.827.541,0,.319.337.522,1.154.831,1.144.406,1.606.938,1.606,1.808a1.848,1.848,0,0,1-1.711,1.788" transform="translate(-17.474 -29.5)" fill="#97a2b6"/>
    <rect id="Rectangle_398" data-name="Rectangle 398" width="2.034" height="5.735" transform="translate(28.277 10.163)" fill="#97a2b6"/>
    <path id="Path_230" data-name="Path 230" d="M0,0,2.043,0,2.029,5.708l-2.043,0Z" transform="translate(11.849 18.726) rotate(-60.001)" fill="#97a2b6"/>
    <path id="Path_231" data-name="Path 231" d="M0,0,5.712-.013l0,2.043L0,2.043Z" transform="matrix(0.866, -0.5, 0.5, 0.866, 11.849, 36.987)" fill="#97a2b6"/>
    <rect id="Rectangle_401" data-name="Rectangle 401" width="2.034" height="5.735" transform="translate(28.277 39.815)" fill="#97a2b6"/>
    <path id="Path_232" data-name="Path 232" d="M0,0,2.043,0,2.029,5.708l-2.043,0Z" transform="translate(40.781 35.89) rotate(-60.001)" fill="#97a2b6"/>
    <path id="Path_233" data-name="Path 233" d="M0,0,5.712-.013l0,2.043L0,2.043Z" transform="translate(40.782 19.823) rotate(-30.004)" fill="#97a2b6"/>
  </g>
</svg>
