<svg xmlns="http://www.w3.org/2000/svg" xmlns:xlink="http://www.w3.org/1999/xlink" width="54" height="55" viewBox="0 0 54 55">
  <defs>
    <clipPath id="clip-path">
      <rect id="Rectangle_396" data-name="Rectangle 396" width="54" height="55" fill="#97a2b6"/>
    </clipPath>
  </defs>
  <g id="Group_160" data-name="Group 160" transform="translate(0 0)">
    <g id="Group_152" data-name="Group 152" transform="translate(0 0)" clip-path="url(#clip-path)">
      <path id="Path_198" data-name="Path 198" d="M39.034,43.306l2.529.36a9.2,9.2,0,0,0,.006-3.683l-2.53.352-.42-1.023-.42-1.023,2.041-1.544a9.148,9.148,0,0,0-2.586-2.608l-1.542,2.047-1.017-.426-1.016-.425.358-2.543a9.072,9.072,0,0,0-3.664-.006l.35,2.544L30.1,35.75l-1.018.422L27.55,34.12a9.121,9.121,0,0,0-2.594,2.6l2.037,1.549-.423,1.023-.423,1.022-2.529-.36a9.2,9.2,0,0,0-.006,3.683l2.531-.352.42,1.023.42,1.024L24.94,46.876a9.134,9.134,0,0,0,2.587,2.608l1.541-2.047,1.017.425,1.016.426-.358,2.543a9.072,9.072,0,0,0,3.664.005l-.35-2.543,1.018-.422,1.018-.422L37.63,49.5a9.119,9.119,0,0,0,2.594-2.6l-2.037-1.55.423-1.022ZM32.59,45.544A3.734,3.734,0,1,1,36.3,41.81a3.725,3.725,0,0,1-3.715,3.734" transform="translate(-5.59 -7.649)" fill="#97a2b6"/>
      <rect id="Rectangle_395" data-name="Rectangle 395" width="3.121" height="27.913" transform="translate(50.879 17.262)" fill="#97a2b6"/>
      <path id="Path_199" data-name="Path 199" d="M60.076,32.727H55.33a17.654,17.654,0,0,1,1.489,3.142h3.257Z" transform="translate(-13.202 -7.678)" fill="#97a2b6"/>
      <path id="Path_200" data-name="Path 200" d="M60.79,43.95V40.808H58.325a17.88,17.88,0,0,1,.243,2.931c0,.07,0,.14-.005.21Z" transform="translate(-13.916 -9.574)" fill="#97a2b6"/>
      <path id="Path_201" data-name="Path 201" d="M9.228,43.95h2.441c0-.07,0-.14,0-.21a17.8,17.8,0,0,1,.243-2.931H9.228Z" transform="translate(-2.202 -9.574)" fill="#97a2b6"/>
      <path id="Path_202" data-name="Path 202" d="M9.228,52.031h3.63a17.582,17.582,0,0,1-.892-3.142H9.228Z" transform="translate(-2.202 -11.47)" fill="#97a2b6"/>
      <path id="Path_203" data-name="Path 203" d="M66.823,59.648a5.822,5.822,0,0,1,1.008,6.369,4.084,4.084,0,0,0,2.113-3.577V53.178l-3.121,3.137Z" transform="translate(-15.944 -12.477)" fill="#97a2b6"/>
      <path id="Path_204" data-name="Path 204" d="M9.228,60.112h7.681a17.8,17.8,0,0,1-2.52-3.142H9.228Z" transform="translate(-2.202 -13.366)" fill="#97a2b6"/>
      <path id="Path_205" data-name="Path 205" d="M23.894,5.953,19.908,0H0V49.962a4.073,4.073,0,0,0,4.057,4.079H41.285l-3.4-3.137H32.725a17.5,17.5,0,0,1-11.346,0H4.057a.951.951,0,0,1-.937-.941V14.842H50.879V24.77L54,21.633V5.953ZM9.48,7.606,8.191,8.9,6.154,6.856,4.118,8.9l-1.289-1.3L4.865,5.56,2.829,3.513l1.289-1.3L6.154,4.263,8.191,2.217l1.289,1.3L7.444,5.56Z" transform="translate(0 0)" fill="#97a2b6"/>
      <path id="Path_206" data-name="Path 206" d="M9.228,35.869H12.7a17.679,17.679,0,0,1,1.489-3.142H9.228Z" transform="translate(-2.202 -7.678)" fill="#97a2b6"/>
      <path id="Path_207" data-name="Path 207" d="M60.514,48.889H57.987a17.573,17.573,0,0,1-.821,2.938l.22.2h3.128Z" transform="translate(-13.64 -11.47)" fill="#97a2b6"/>
      <path id="Path_208" data-name="Path 208" d="M49.836,26.829h7.738V23.491H44.845a17.646,17.646,0,0,1,4.991,3.338" transform="translate(-10.7 -5.511)" fill="#97a2b6"/>
      <path id="Path_209" data-name="Path 209" d="M9.228,26.829h7.954a17.645,17.645,0,0,1,4.991-3.338H9.228Z" transform="translate(-2.202 -5.511)" fill="#97a2b6"/>
      <path id="Path_210" data-name="Path 210" d="M14.931,39.8A15.733,15.733,0,0,0,30.62,55.574a15.53,15.53,0,0,0,9.268-3.066l7.705,7.107a3.879,3.879,0,0,0,5.231-5.73l-8.01-7.391A15.706,15.706,0,1,0,14.931,39.8m27.084,0A11.393,11.393,0,1,1,30.62,28.348,11.422,11.422,0,0,1,42.015,39.8" transform="translate(-3.563 -5.638)" fill="#97a2b6"/>
    </g>
  </g>
</svg>
