<svg xmlns="http://www.w3.org/2000/svg" width="18.174" height="18.174" viewBox="0 0 18.174 18.174">
  <path id="Icon_awesome-linkedin" data-name="Icon awesome-linkedin" d="M16.876,2.25H1.294A1.3,1.3,0,0,0,0,3.56V19.114a1.3,1.3,0,0,0,1.294,1.31H16.876a1.307,1.307,0,0,0,1.3-1.31V3.56A1.307,1.307,0,0,0,16.876,2.25ZM5.493,17.828H2.8V9.155H5.5v8.673ZM4.146,7.97A1.562,1.562,0,1,1,5.708,6.408,1.563,1.563,0,0,1,4.146,7.97ZM15.59,17.828H12.9V13.609c0-1.006-.02-2.3-1.4-2.3-1.4,0-1.619,1.1-1.619,2.227v4.292H7.185V9.155H9.769v1.185h.037a2.837,2.837,0,0,1,2.552-1.4c2.726,0,3.233,1.8,3.233,4.134Z" transform="translate(0 -2.25)" fill="#fff"/>
</svg>
