<svg xmlns="http://www.w3.org/2000/svg" width="20.771" height="16.87" viewBox="0 0 20.771 16.87">
  <path id="Icon_awesome-twitter" data-name="Icon awesome-twitter" d="M18.636,7.585c.013.185.013.369.013.554A12.029,12.029,0,0,1,6.537,20.25,12.03,12.03,0,0,1,0,18.339a8.806,8.806,0,0,0,1.028.053,8.525,8.525,0,0,0,5.285-1.819,4.264,4.264,0,0,1-3.98-2.952,5.368,5.368,0,0,0,.8.066,4.5,4.5,0,0,0,1.12-.145A4.258,4.258,0,0,1,.843,9.364V9.312a4.287,4.287,0,0,0,1.924.54A4.263,4.263,0,0,1,1.45,4.158a12.1,12.1,0,0,0,8.777,4.455,4.806,4.806,0,0,1-.105-.975,4.261,4.261,0,0,1,7.367-2.913,8.381,8.381,0,0,0,2.7-1.028,4.245,4.245,0,0,1-1.871,2.346,8.534,8.534,0,0,0,2.451-.659,9.151,9.151,0,0,1-2.135,2.2Z" transform="translate(0 -3.381)" fill="#07124a"/>
</svg>
