<svg width="28" height="27" viewBox="0 0 28 27" fill="none" xmlns="http://www.w3.org/2000/svg">
<path d="M20.3259 16.5989V20.7558L15.6285 16.0571L14.1589 14.5875L12.6894 16.0571L7.99197 20.7571V16.5989L14.1589 10.4307L20.3259 16.5989Z" fill="#0077FF"/>
<path d="M15.6284 13.4009H12.6893V23.9675H15.6284V13.4009Z" fill="#0077FF"/>
<path d="M15.6285 23.9671C15.6285 25.59 14.3123 26.9062 12.6894 26.9062H3.29333C1.67044 26.9062 0.354248 25.59 0.354248 23.9671V22.4976C0.354248 23.309 1.01235 23.9671 1.82379 23.9671H15.6285Z" fill="#0077FF"/>
<path d="M27.9637 0.477539V23.9672C27.9637 25.59 26.6475 26.9062 25.0246 26.9062H20.3259V23.9672H25.0246V7.5735L20.3259 12.2722L14.159 6.10396L7.99202 12.2722L3.29333 7.5735V23.9672H1.82379C1.01235 23.9672 0.354248 23.3091 0.354248 22.4976V0.477539L7.99202 8.11531L14.159 1.94708L20.3259 8.11531L27.9637 0.477539Z" fill="#07124A"/>
</svg>
