<svg xmlns="http://www.w3.org/2000/svg" width="34.019" height="34.274" viewBox="0 0 34.019 34.274">
  <g id="thumbs-up" transform="translate(-1 -1)">
    <path id="Path_240" data-name="Path 240" d="M7,10V29.365" transform="translate(3.069 4.91)" fill="none" stroke="#fff" stroke-linecap="round" stroke-linejoin="round" stroke-width="2"/>
    <path id="Path_241" data-name="Path 241" d="M22.978,8.261,21.365,14.91h9.408a3.227,3.227,0,0,1,3.1,4.131l-3.76,12.91a3.227,3.227,0,0,1-3.1,2.324H5.227A3.227,3.227,0,0,1,2,31.047V18.137A3.227,3.227,0,0,1,5.227,14.91H9.681a3.227,3.227,0,0,0,2.889-1.791L18.137,2h0a5.051,5.051,0,0,1,4.841,6.261Z" fill="none" stroke="#fff" stroke-linecap="round" stroke-linejoin="round" stroke-width="2"/>
  </g>
</svg>
